Genre:Action | Crime | Thriller
Language:English
IMDb:http://www.imdb.com/title/tt1135084/
Source:DVDR MtV

General
Complete name :Takers.2010.CAM.XviD.FEEL-FREE
Format : AVI
Format/Info : Audio Video Interleave
File size : 967 MiB
Duration : 1h 40mn
Overall bit rate : 1 342 Kbps
Video
Format : xvid
Codec ID : xvid
Duration : 1h 40mn
Bit rate : 1 200 Kbps
Width : 720 pixels
Height : 304 pixels
Display aspect ratio : 2.35:1
Frame rate : 29.970 fps
Resolution : 24 bits
Bits/(Pixel*Frame) : 0.183
Stream size : 864 MiB (89%)
Audio #1
ID : 1
Format : MPEG Audio
Format version : Version 1
Format profile : Layer 3
Codec ID : 55
Codec ID/Hint : MP3
Duration : 1h 40mn
Bit rate mode : Constant
Bit rate : 128 Kbps
Channel(s) : 2 channels
Sampling rate : 48.0 KHz
Resolution : 16 bits
Stream size : 92.2 MiB (10%)
Alignment : Aligned on interleaves
Interleave, duration : 24 ms (0.72 video frame)

Plot
A group of bank robbers find their $20 million plan interrupted by a hard-boiled detective







---------------------------------- 
http://thepiratebay.org/user/hiest
----------------------------------








Screenshots:
 
http://www.starshare.ro/bitbucket/Takers.2010.CAM.XviD.FEEL-FREE.avi_thumbs_%5B2010.08.30_17.38.19%5D.jpg
 
http://www.starshare.ro/bitbucket/Takers.2010.CAM.XviD.FEEL-FREE.avi_snapshot_00.13.21_%5B2010.08.30_17.37.58%5D.jpg
 
http://www.starshare.ro/bitbucket/Takers.2010.CAM.XviD.FEEL-FREE.avi_snapshot_00.58.05_%5B2010.08.30_17.38.08%5D.jpg